<?xml version="1.0" encoding="UTF-8" standalone="no"?>
<svg width="115px" height="38px" viewBox="0 0 115 38" version="1.1" xmlns="http://www.w3.org/2000/svg" xmlns:xlink="http://www.w3.org/1999/xlink">
    <!-- Generator: Sketch 3.7.1 (28215) - http://www.bohemiancoding.com/sketch -->
    <title>Group 5 Copy 3</title>
    <desc>Created with Sketch.</desc>
    <defs></defs>
    <g id="Page-1" stroke="none" stroke-width="1" fill="none" fill-rule="evenodd">
        <g id="Desktop-Copy" transform="translate(-455.000000, -118.000000)" fill="#CD6799">
            <g id="Group-5-Copy-3" transform="translate(455.000000, 118.000000)">
                <path d="M80.8671875,28.9765625 C80.3984352,29.4713566 79.8418001,29.9238261 79.1972656,30.3339844 C78.5527312,30.7441427 77.9309926,30.9492188 77.3320312,30.9492188 C76.7330699,30.9492188 76.4335938,30.7278668 76.4335938,30.2851563 C76.4335938,29.933592 76.5638008,29.4973984 76.8242188,28.9765625 C76.9544277,28.7291654 77.0683589,28.517579 77.1660156,28.3417969 C77.2636724,28.1660147 77.4003897,27.9446628 77.5761719,27.6777344 C77.751954,27.410806 77.8593748,27.2382816 77.8984375,27.1601563 C80.9974113,21.8215879 82.546875,19.0026057 82.546875,18.703125 C82.546875,18.4036443 82.3841162,18.0716164 82.0585938,17.7070313 C81.7330713,17.3424461 81.3652364,17.1601563 80.9550781,17.1601563 C80.5449198,17.1601563 79.9524778,17.4433565 79.1777344,18.0097656 C78.4029909,18.5761747 77.7454454,19.1490856 77.2050781,19.7285156 C76.6647108,20.3079456 76.3945312,20.6660149 76.3945312,20.8027344 C76.3945312,20.9394538 76.5279935,21.1510402 76.7949219,21.4375 C77.0618503,21.7239598 77.1953125,21.9160151 77.1953125,22.0136719 C77.1953125,22.1113286 76.8372432,22.7395775 76.1210938,23.8984375 C75.4049443,25.0572975 74.6888057,26.3203057 73.9726562,27.6875 C73.8388686,27.9429127 73.717578,28.1869641 73.6087843,28.4196545 C73.368916,28.6770733 73.1256241,28.9310678 72.8789062,29.1816406 C72.4622375,29.6048198 71.9869818,30.0019513 71.453125,30.3730469 C70.9192682,30.7441425 70.4570332,30.9296875 70.0664062,30.9296875 C69.6757793,30.9296875 69.4804688,30.5716182 69.4804688,29.8554688 C69.4804688,29.6210926 69.4999998,29.4388027 69.5390625,29.3085938 C69.734376,28.253901 70.1673144,26.9811272 70.8378906,25.4902344 C71.5084669,23.9993415 72.1204399,22.7753954 72.6738281,21.8183594 C73.2272163,20.8613233 73.5885408,20.2981779 73.7578125,20.1289063 C73.9270842,19.9596346 74.0117188,19.6927102 74.0117188,19.328125 C74.0117188,18.6510383 73.516932,18.3125 72.5273438,18.3125 C72.0976541,18.3125 71.7753917,18.3743483 71.5605469,18.4980469 C71.3457021,18.6217454 71.0820328,18.9179664 70.7695312,19.3867188 C70.6523432,19.0351545 70.372398,18.7421887 69.9296875,18.5078125 C69.486977,18.2734363 68.914066,18.15625 68.2109375,18.15625 C66.3880117,18.15625 64.3958441,19.0025957 62.234375,20.6953125 C61.205724,21.5026082 60.261723,22.3977815 59.4023438,23.3808594 C58.5429645,24.3639372 57.849612,25.4511659 57.3222656,26.6425781 C57.0129779,27.3413392 56.79439,28.0378547 56.6665,28.7321317 C56.584738,28.8048062 56.5005921,28.8797727 56.4140625,28.9570313 C55.8671848,29.4388045 55.2682324,29.8847636 54.6171875,30.2949219 C53.9661426,30.7050802 53.3737006,30.9101563 52.8398438,30.9101563 C52.3059869,30.9101563 52.0390625,30.6562525 52.0390625,30.1484375 C52.0390625,29.9010404 52.0651039,29.5820332 52.1171875,29.1914063 C52.2343756,28.332027 53.2402249,26.1933765 55.1347656,22.7753906 C57.0293063,19.3574048 58.503901,16.8411539 59.5585938,15.2265625 C59.8710953,15.2135416 61.5377453,15.0572932 64.5585938,14.7578125 C66.53125,14.7578125 66.7018967,11.9243898 64.9393997,11.9243898 C63.1769028,11.9243898 62.7617238,11.9648434 61.7460938,12.0429688 C61.7721355,11.9908852 61.9707013,11.6751331 62.3417969,11.0957031 C62.7128925,10.5162731 63.0351549,9.9987002 63.3085938,9.54296875 C63.5820326,9.0872373 63.5977173,8.95703124 63.4801197,8.4212984 C63.3625221,7.88556556 62.6015377,7.79707281 62.0058346,7.90530812 C61.4101315,8.01354343 60.8574239,8.48827891 60.4472656,8.95703125 C60.0371073,9.42578359 59.2851617,10.4804605 58.1914062,12.1210938 C58.1914062,12.1210938 54.1144524,12.5691118 52.8398438,13.1074219 C51.5652351,13.6457319 51.0532074,14.2355447 50.9403839,14.6592498 C50.8275604,15.0829549 51.0234357,15.3795565 51.375,15.5292969 C51.7265643,15.6790372 52.8398438,15.7415528 55.28125,15.5 L56.0234375,15.4023438 C54.6171805,17.6158965 53.2109445,19.9856645 51.8046875,22.5117188 C50.9453082,24.0612057 50.2324247,25.5227796 49.6660156,26.8964844 C49.646111,26.9447589 49.626552,26.9927801 49.6073388,27.0405481 C49.5384654,27.0577226 49.4766444,27.0878263 49.421875,27.1308594 C49.3307287,27.2024743 49.0931009,27.4466125 48.7089844,27.8632813 C48.3248679,28.27995 47.937502,28.6901021 47.546875,29.09375 C46.4791613,30.2005264 45.5677121,30.8059891 44.8125,30.9101563 C44.3958312,30.9101563 44.1875,30.6367215 44.1875,30.0898438 C44.1875,29.1262973 44.9557215,27.0560055 46.4921875,23.8789063 C46.5963547,23.6705719 47.1074173,22.7786537 48.0253906,21.203125 C48.943364,19.6275963 49.4609369,18.6575539 49.578125,18.2929688 C49.578125,18.1757807 49.5260422,18.0130219 49.421875,17.8046875 C49.3177078,17.5963531 49.2265629,17.4856771 49.1484375,17.4726563 C49.0703121,17.4596354 48.9596361,17.453125 48.8164062,17.453125 C47.9309852,17.4791668 47.2083361,17.6744773 46.6484375,18.0390625 C46.4661449,18.1562506 46.189455,18.4752578 45.8183594,18.9960938 C45.4472638,19.5169297 45.0664082,20.1581993 44.6757812,20.9199219 C44.2851543,21.6816444 42.8463666,23.4166531 40.359375,26.125 C37.8723834,28.8333469 36.3164094,30.1875 35.6914062,30.1875 C35.5481764,30.1875 35.4765625,30.0898447 35.4765625,29.8945313 C35.4765625,29.1262982 36.7656121,26.4114816 39.34375,21.75 C40.2161502,20.1874922 40.6523438,19.3085947 40.6523438,19.1132813 C40.6523438,18.9179678 40.509116,18.6640641 40.2226562,18.3515625 C39.9361965,18.0390609 39.6041686,17.8860677 39.2265625,17.8925781 C38.8489564,17.8990886 38.4615905,18.1595026 38.0644531,18.6738281 C37.6673157,19.1881536 37.1660187,19.9791613 36.5605469,21.046875 C35.9550751,22.1145887 35.4667987,22.9641896 35.0957031,23.5957031 C34.7246075,24.2272167 34.4544279,24.6992172 34.2851562,25.0117188 C34.1158846,25.3242203 33.8587257,25.8255174 33.5136719,26.515625 C33.1686181,27.2057326 32.908204,27.7851539 32.7324219,28.2539063 C32.5566397,28.7226586 32.3906258,29.2532522 32.234375,29.8457031 C32.0781242,30.438154 32,31.0110649 32,31.5644531 C32,32.1178413 32.2246071,32.6549453 32.6738281,33.1757813 C33.1230491,33.6966172 33.7122359,33.9570313 34.4414062,33.9570313 C36.2773529,33.9570313 38.8098797,31.9323119 42.0390625,27.8828125 C41.4791639,28.8984426 41.1992188,29.9335885 41.1992188,30.9882813 C41.1992188,32.042974 41.4986949,32.7818989 42.0976562,33.2050781 C42.6966176,33.6282573 43.3476527,33.8398438 44.0507812,33.8398438 C45.1966203,33.8398438 46.4075457,33.3157604 47.6835938,32.2675781 C48.1343421,31.8973205 48.5290366,31.5469672 48.8676781,31.2165171 C48.9670747,31.8073327 49.1876135,32.3009129 49.5292969,32.6972656 C50.0175806,33.2636747 50.7825469,33.6445303 51.8242188,33.8398438 C51.9934904,33.8789064 52.1757803,33.8984375 52.3710938,33.8984375 C53.2695357,33.8984375 54.1679643,33.611982 55.0664062,33.0390625 C55.5784571,32.7125373 56.1581742,32.2950825 56.8055638,31.7866932 C56.9845795,32.2410331 57.251214,32.6324467 57.6054688,32.9609375 C58.1653674,33.4947943 58.8880164,33.7617188 59.7734375,33.7617188 C60.6588586,33.7617188 61.8014253,33.2734424 63.2011719,32.296875 C64.6009185,31.3203076 65.8411404,30.1289133 66.921875,28.7226563 C66.661457,29.3085967 66.53125,29.9889284 66.53125,30.7636719 C66.53125,31.5384153 66.7786434,32.2447885 67.2734375,32.8828125 C67.7682316,33.5208365 68.5397083,33.8398438 69.5878906,33.8398438 C70.6360729,33.8398438 71.8014259,33.3190156 73.0839844,32.2773438 C73.1590719,32.216359 73.2326085,32.1558875 73.3045941,32.0959293 C73.4821116,32.3732855 73.7178196,32.6486003 74.0117188,32.921875 C74.75391,33.6119826 75.6393178,33.9570313 76.6679688,33.9570313 C77.6680966,33.9570313 78.8405306,33.5785411 80.1853041,32.8215499 C80.2701088,32.855829 80.3639397,32.8925259 80.4667969,32.9316406 C80.9290388,33.1074228 81.3001288,33.1953125 81.5800781,33.1953125 C81.8600274,33.1953125 82.2018209,32.9153674 82.6054688,32.3554688 C83.9987049,30.4804594 85.2910097,28.8886784 86.4824219,27.5800781 C87.6738341,26.2714778 89.1191321,24.7903729 90.8183594,23.1367188 C92.5175866,21.4830646 93.5820291,20.6367189 94.0117188,20.5976563 C93.0872348,21.7695369 92.6054688,22.7851518 92.6054688,23.6835938 C92.6054688,24.0872416 92.7193999,24.4388006 92.9472656,24.7382813 C93.1751313,25.0377619 93.4941386,25.1875 93.9042969,25.1875 C94.3144552,25.1875 94.68229,24.9791688 95.0078125,24.5625 C95.6197947,23.7421834 96.2871058,22.7363341 97.0097656,21.5449219 C97.7324255,20.3535097 98.09375,19.5039088 98.09375,18.9960938 C98.09375,18.4882787 97.9212257,18.0748714 97.5761719,17.7558594 C97.2311181,17.4368474 96.7916693,17.2773438 96.2578125,17.2773438 C94.0963434,17.2773438 91.479182,19.022118 88.40625,22.5117188 L89.2265625,21.28125 C90.3593807,19.5885332 90.9257812,18.436201 90.9257812,17.8242188 C90.9257812,17.4335918 90.7695328,17.2382813 90.4570312,17.2382813 C89.0637951,17.2382813 88.0742217,17.6093713 87.4882812,18.3515625 C87.1757797,18.7421895 86.7721379,19.3671832 86.2773438,20.2265625 C86.0429676,20.6432313 85.3268289,21.8541566 84.1289062,23.859375 C82.9577113,25.8198535 82.0883528,27.2949032 81.5208061,28.284566 C81.3228352,28.4904155 81.1049624,28.721081 80.8671875,28.9765625 Z M69.9296875,20.4804688 C67.7031139,20.4804688 65.3984494,21.7174355 63.015625,24.1914063 C62.1692666,25.0768273 61.3912796,26.1380146 60.6816406,27.375 C59.9720017,28.6119854 59.6171875,29.4583311 59.6171875,29.9140625 C59.6171875,30.3697939 59.7473945,30.5976563 60.0078125,30.5976563 C60.3723977,30.5976563 61.3880125,29.8782624 63.0546875,28.4394531 C64.7213625,27.0006438 65.8281223,25.9427117 66.375,25.265625 C66.9739613,24.5104129 68.1588453,22.9153768 69.9296875,20.4804688 L69.9296875,20.4804688 Z" id="Combined-Shape-Copy"></path>
                <path d="M12.3611514,27.2176436 C9.07319473,28.181931 6.2785039,28.7917778 5.68453131,30.9479332 C5.09055871,33.1040886 8.70111609,33.0911823 10.325027,33.0911823 C11.9489379,33.0911823 13.735213,32.8496812 15.6839061,32.3666719 C17.6325992,31.8836625 19.3272705,31.2924012 20.7679709,30.5928704 C22.2086714,29.8933395 23.3995215,29.1605087 24.340557,28.3943559 C25.2815926,27.628203 25.7521033,26.9619932 25.7521033,26.3957063 C25.7521033,25.6795199 24.919341,25.0133101 23.2537913,24.3970567 C21.5882417,23.7808034 19.1690671,23.1021021 15.9961951,22.3609325 C12.8233231,21.6197629 10.4999162,20.6829053 9.02590476,19.5503315 C7.55189334,18.4177578 6.81489868,17.0395362 6.81489868,15.4156253 C6.81489868,13.7917144 7.39783231,12.2386126 8.56371705,10.7562735 C9.72960179,9.2739343 11.249393,7.95816983 13.1231364,6.80894059 C14.9968797,5.65971135 17.0413112,4.63541369 19.2564922,3.73601689 C23.8367537,1.8872568 28.0838415,0.962890625 31.9978832,0.962890625 C33.4968778,0.962890625 40.7052615,1.59112703 38.6395625,4.86828529 C36.5738635,8.14544355 29.5676104,10.260726 27.5134131,9.99655437 C25.4592158,9.73238277 36.1310393,4.57416677 32.8238512,4.45757818 C30.7896609,4.38586669 26.2476133,5.79295632 23.9408271,6.60907564 C21.6340409,7.42519495 19.6312475,8.34539732 17.9323869,9.36971034 C16.2335262,10.3940234 14.8178303,11.4016658 13.6852565,12.3926678 C12.5526828,13.3836698 11.9864044,14.0831902 11.9864044,14.4912498 C11.9864044,14.8993095 12.1113188,15.2365782 12.3611512,15.5030662 C13.0606821,16.2525635 15.0010183,17.0353601 18.1822181,17.8514794 C21.4800063,18.7009097 23.6784989,19.3837748 24.7777616,19.9000952 C25.8770244,20.4164156 26.7888991,20.9077454 27.5134132,21.3740993 C28.2379273,21.8404532 28.8166971,22.3151277 29.24974,22.7981371 C30.2657253,23.9640218 30.7737103,25.1465443 30.7737103,26.3457401 C30.7737103,27.5449358 30.4530968,28.6691649 29.8118602,29.7184612 C29.1706236,30.7677575 28.2046193,31.7837275 26.9138183,32.7664018 C25.6230174,33.749076 24.1032261,34.6234765 22.354399,35.3896293 C18.5236349,37.1051454 13.9600973,37.9628906 8.66364953,37.9628906 C4.79957439,37.9628906 2.33459791,36.938593 1.26864615,34.8899669 C0.985502714,34.3736465 0.453742567,32.9404614 1.01922238,30.9479332 C1.5847022,28.955405 3.07486333,26.9338632 8.66364953,25.66546 C14.2524357,24.3970567 20.2112682,25.1598506 22.0759202,25.66546 C23.6521295,26.0928567 15.649108,26.2533562 12.3611514,27.2176436 Z" id="Path-Copy"></path>
                <path d="M86.3164062,12.1132812 C86.3164062,12.8554725 85.9713576,13.6009077 85.28125,14.3496094 C84.5911424,15.098311 83.8717485,15.4726562 83.1230469,15.4726562 C82.3743452,15.4726562 82,15.0820352 82,14.3007812 C82,13.5195273 82.3287728,12.7740921 82.9863281,12.0644531 C83.6438835,11.3548142 84.3697877,11 85.1640625,11 C85.5156268,11 85.7955719,11.0976553 86.0039062,11.2929688 C86.2122406,11.4882822 86.3164062,11.761717 86.3164062,12.1132812 L86.3164062,12.1132812 Z" id="Path-Copy-2"></path>
                <path d="M114.114109,27.7058086 C113.888927,27.9998608 113.876354,27.4042158 112.22311,28.1936598 C110.569866,28.9831038 109.73952,31.1113281 108.812815,31.8891449 C107.886109,32.6669617 107.19662,33.3867188 106.050781,33.3867188 C105.347653,33.3867188 104.696618,33.1751323 104.097656,32.7519531 C103.498695,32.3287739 103.199219,31.589849 103.199219,30.5351562 C103.199219,29.4804635 103.479164,28.4453176 104.039062,27.4296875 C100.80988,31.4791869 98.2773529,33.5039062 96.4414062,33.5039062 C95.7122359,33.5039062 95.1230491,33.2434922 94.6738281,32.7226562 C94.2246071,32.2018203 94,31.6647163 94,31.1113281 C94,30.5579399 94.0781242,29.985029 94.234375,29.3925781 C94.3906258,28.8001272 94.5566397,28.2695336 94.7324219,27.8007812 C94.908204,27.3320289 95.1686181,26.7526076 95.5136719,26.0625 C95.8587257,25.3723924 96.1158846,24.8710953 96.2851562,24.5585938 C96.4544279,24.2460922 96.7246075,23.7740917 97.0957031,23.1425781 C97.4667987,22.5110646 97.9550751,21.6614637 98.5605469,20.59375 C99.1660187,19.5260363 99.6673157,18.7350286 100.064453,18.2207031 C100.461591,17.7063776 100.848956,17.4459636 101.226562,17.4394531 C101.604169,17.4329427 101.936196,17.5859359 102.222656,17.8984375 C102.509116,18.2109391 102.652344,18.4648428 102.652344,18.6601562 C102.652344,18.8554697 102.21615,19.7343672 101.34375,21.296875 C98.7656121,25.9583566 97.4765625,28.6731732 97.4765625,29.4414062 C97.4765625,29.6367197 97.5481764,29.734375 97.6914062,29.734375 C98.3164094,29.734375 99.8723834,28.3802219 102.359375,25.671875 C104.846367,22.9635281 106.285154,21.2285194 106.675781,20.4667969 C107.066408,19.7050743 107.447264,19.0638047 107.818359,18.5429688 C108.189455,18.0221328 108.466145,17.7031256 108.648437,17.5859375 C109.208336,17.2213523 109.930985,17.0260418 110.816406,17 C110.959636,17 111.070312,17.0065104 111.148438,17.0195312 C111.226563,17.0325521 111.317708,17.1432281 111.421875,17.3515625 C111.526042,17.5598969 111.578125,17.7226557 111.578125,17.8398438 C111.460937,18.2044289 110.943364,19.1744713 110.025391,20.75 C109.107417,22.3255287 108.596355,23.2174469 108.492187,23.4257812 C106.955721,26.6028805 106.1875,28.6731723 106.1875,29.6367188 C106.1875,30.1835965 106.395831,30.4570312 106.8125,30.4570312 C107.567712,30.3528641 108.479161,29.7474014 109.546875,28.640625 C109.937502,28.2369771 111.168121,27.2630634 112.504633,27.2630634 C113.841145,27.2630634 114.339291,27.4117565 114.114109,27.7058086 Z" id="Path-Copy-3"></path>
            </g>
        </g>
    </g>
</svg>